# https://github.com/mikedh/trimesh

o Box_H_1.obj
v 0.11444957 -0.11445636 -0.11444606
v 0.11444957 -0.11445636 -0.11444606
v 0.11444957 -0.11445636 -0.11444606
v 0.11444927 0.11444497 -0.11445776
v 0.11444927 0.11444497 -0.11445776
v 0.11444927 0.11444497 -0.11445776
v 0.11445205 -0.11444467 0.11445526
v 0.11445205 -0.11444467 0.11445526
v 0.11445205 -0.11444467 0.11445526
v 0.11445176 0.11445665 0.11444357
v 0.11445176 0.11445665 0.11444357
v 0.11445176 0.11445665 0.11444357
v -0.11444928 -0.11444496 0.11445775
v -0.11444928 -0.11444496 0.11445775
v -0.11444928 -0.11444496 0.11445775
v -0.11444957 0.11445636 0.11444606
v -0.11444957 0.11445636 0.11444606
v -0.11444957 0.11445636 0.11444606
v -0.11445176 -0.11445665 -0.11444358
v -0.11445176 -0.11445665 -0.11444358
v -0.11445176 -0.11445665 -0.11444358
v -0.11445205 0.11444468 -0.11445525
v -0.11445205 0.11444468 -0.11445525
v -0.11445205 0.11444468 -0.11445525
vt 0.37500000 0.00000000
vt 0.37500000 1.00000000
vt 0.37500000 0.00000000
vt 0.62500000 1.00000000
vt 0.62500000 0.00000000
vt 0.62500000 0.00000000
vt 0.37500000 0.25000000
vt 0.37500000 0.25000000
vt 0.37500000 0.25000000
vt 0.62500000 0.25000000
vt 0.62500000 0.25000000
vt 0.62500000 0.25000000
vt 0.37500000 0.50000000
vt 0.37500000 0.50000000
vt 0.12500000 0.25000000
vt 0.62500000 0.50000000
vt 0.62500000 0.50000000
vt 0.87500000 0.25000000
vt 0.37500000 0.75000000
vt 0.37500000 0.75000000
vt 0.12500000 0.00000000
vt 0.62500000 0.75000000
vt 0.62500000 0.75000000
vt 0.87500000 0.00000000
f 1/1 6/6 11/11
f 8/8 12/12 16/16
f 13/13 17/17 22/22
f 20/20 23/23 4/4
f 5/5 24/24 18/18
f 21/21 3/3 9/9
f 11/11 7/7 1/1
f 16/16 14/14 8/8
f 22/22 19/19 13/13
f 4/4 2/2 20/20
f 18/18 10/10 5/5
f 9/9 15/15 21/21

